<svg width="37" height="37" viewBox="0 0 37 37" fill="none" xmlns="http://www.w3.org/2000/svg">
<path d="M36.0372 18.6135C36.0372 28.4941 28.121 36.4939 18.3681 36.4939C8.61519 36.4939 0.698959 28.4941 0.698959 18.6135C0.698959 8.73288 8.61519 0.733077 18.3681 0.733077C28.121 0.733077 36.0372 8.73288 36.0372 18.6135Z" fill="#D7D7D7" stroke="#D1D1D1" stroke-width="1.01217"/>
<g opacity="0.421294">
<path d="M9.96631 25.8081C9.96631 26.7201 11.0402 27.4663 12.3528 27.4663H19.5124V20.0048H9.96631V25.8081Z" fill="black"/>
<path d="M23.8877 27.4663C24.9814 27.4663 25.8764 26.7201 25.8764 25.8081V20.0048H17.9214V27.4663H23.8877Z" fill="black"/>
<path fill-rule="evenodd" clip-rule="evenodd" d="M27.4673 17.5176V15.8595C27.4673 14.9437 26.755 14.2014 25.8763 14.2014H20.0325C21.1463 13.7015 22.3677 13.0934 22.7782 12.6655C23.7049 11.6996 23.7263 10.118 22.7782 9.12988C21.8429 8.15507 20.3217 8.15507 19.3864 9.12988C18.9733 9.55999 18.3858 10.8444 17.9049 12.0105C17.4239 10.8447 16.8362 9.56049 16.4235 9.12988C15.4882 8.15507 13.9671 8.15507 13.0301 9.12988C12.0964 10.1055 12.0964 11.6907 13.0309 12.6647C13.4415 13.093 14.6629 13.7015 15.7769 14.2014H9.96625C9.08754 14.2014 8.37524 14.9437 8.37524 15.8595V17.5176C8.37524 18.4333 9.08754 19.1757 9.96625 19.1757H25.8763C26.755 19.1757 27.4673 18.4333 27.4673 17.5176ZM14.1559 11.4924C13.8412 11.1645 13.8412 10.6301 14.1559 10.3022C14.4713 9.97352 14.9844 9.97485 15.2978 10.3014C15.5029 10.5216 15.9714 11.528 16.4537 12.6971C15.3328 12.1943 14.3663 11.7061 14.1559 11.4924ZM21.6533 10.3022C21.3373 9.97302 20.8252 9.9751 20.5113 10.3022C20.3062 10.5224 19.8377 11.5288 19.3561 12.6971C20.4764 12.1943 21.4427 11.7061 21.6533 11.4924C21.9706 11.1617 21.9682 10.6303 21.6533 10.3022Z" fill="black"/>
<rect x="16.5576" y="19.2945" width="1.36372" height="8.17178" fill="#D7D7D7"/>
<rect x="17.9214" y="19.2945" width="1.36372" height="8.17178" fill="#D7D7D7"/>
</g>
</svg>
