<svg width="22" height="22" viewBox="0 0 22 22" fill="none" xmlns="http://www.w3.org/2000/svg">
<path d="M11 0C4.92683 0 0 4.92683 0 11C0 17.0732 4.92683 22 11 22C17.0732 22 22 17.0732 22 11C22 4.92683 17.0732 0 11 0ZM11 19.9512C6.07317 19.9512 2.04878 15.9512 2.04878 11C2.04878 6.04878 6.07317 2.04878 11 2.04878C15.9268 2.04878 19.9512 6.07317 19.9512 11C19.9512 15.9268 15.9268 19.9512 11 19.9512Z" fill="black"/>
<path d="M11.2439 4.90243C9.95121 4.82925 8.70731 5.26828 7.85365 6.07316C7.17072 6.73169 6.80487 7.56096 6.80487 8.43901C6.80487 8.99999 7.26829 9.4634 7.82926 9.4634C8.39024 9.4634 8.85365 8.99999 8.85365 8.43901C8.85365 8.04877 9.07316 7.75608 9.26829 7.56096C9.70731 7.14633 10.4146 6.90243 11.1463 6.95121C12.1951 6.99999 13.0732 7.63413 13.1463 8.36584C13.1951 9.02438 12.6097 9.63413 11.7073 9.85364C10.6829 10.0975 9.9756 10.9512 9.9756 11.878V12.5122C9.9756 13.0732 10.439 13.5366 11 13.5366C11.561 13.5366 12.0244 13.0732 12.0244 12.5122V11.9268C12.0488 11.9024 12.0976 11.8536 12.1951 11.8293C14.0732 11.3658 15.3171 9.85364 15.1707 8.19511C15.0488 6.41462 13.3658 4.99999 11.2439 4.90243Z" fill="black"/>
<path d="M11.0244 17.0976C11.6979 17.0976 12.2439 16.5516 12.2439 15.8781C12.2439 15.2045 11.6979 14.6585 11.0244 14.6585C10.3509 14.6585 9.80487 15.2045 9.80487 15.8781C9.80487 16.5516 10.3509 17.0976 11.0244 17.0976Z" fill="black"/>
</svg>
